<?xml version="1.0" encoding="UTF-8"?>
<svg id="Layer_1" data-name="Layer 1" xmlns="http://www.w3.org/2000/svg" viewBox="0 0 320 320">
  <defs>
    <style>
      .cls-1 {
        fill: #a5bdff;
      }

      .cls-2 {
        fill: #fff;
      }

      .cls-3 {
        fill: #1f1f1e;
      }

      .cls-4 {
        fill: #333331;
      }

      .cls-5 {
        fill: #787775;
      }

      .cls-6 {
        fill: #3b36ff;
      }
    </style>
  </defs>
  <g>
    <g>
      <path class="cls-3" d="M251.27,113.86l-8.21-8.21v-26.52c0-5.67-4.59-10.26-10.26-10.26h-68.02c-5.67,0-10.26,4.59-10.26,10.26v28.18c0,5.67,4.59,10.26,10.26,10.26h84.97c1.93,0,2.9-2.34,1.53-3.7Z"/>
      <path class="cls-6" d="M246.84,113.86l-8.21-8.21v-26.52c0-5.67-4.59-10.26-10.26-10.26h-68.02c-5.67,0-10.26,4.59-10.26,10.26v28.18c0,5.67,4.59,10.26,10.26,10.26h84.97c1.93,0,2.9-2.34,1.53-3.7Z"/>
      <g>
        <path class="cls-2" d="M182.91,89.8h39.29c2.19,0,3.97-1.78,3.97-3.97s-1.78-3.97-3.97-3.97h-39.29c-2.19,0-3.97,1.78-3.97,3.97s1.78,3.97,3.97,3.97Z"/>
        <path class="cls-2" d="M202.07,104.57h20.14c2.19,0,3.97-1.78,3.97-3.97s-1.78-3.97-3.97-3.97h-20.14c-2.19,0-3.97,1.78-3.97,3.97s1.78,3.97,3.97,3.97Z"/>
      </g>
    </g>
    <g>
      <rect class="cls-3" x="81.37" y="104.35" width="88.54" height="48.7" rx="10.26" ry="10.26"/>
      <path class="cls-6" d="M155.23,104.35h-68.02c-5.67,0-10.26,4.59-10.26,10.26v26.52l-8.21,8.21c-1.37,1.37-.4,3.7,1.53,3.7h84.97c5.67,0,10.26-4.59,10.26-10.26v-28.18c0-5.67-4.59-10.26-10.26-10.26Z"/>
      <g>
        <path class="cls-2" d="M131.46,125.29h-39.29c-2.19,0-3.97-1.78-3.97-3.97s1.78-3.97,3.97-3.97h39.29c2.19,0,3.97,1.78,3.97,3.97s-1.78,3.97-3.97,3.97Z"/>
        <path class="cls-2" d="M112.31,140.05h-20.14c-2.19,0-3.97-1.78-3.97-3.97s1.78-3.97,3.97-3.97h20.14c2.19,0,3.97,1.78,3.97,3.97s-1.78,3.97-3.97,3.97Z"/>
      </g>
    </g>
  </g>
  <g>
    <path class="cls-3" d="M272.7,230.66c10.27,6.99-31.85,15.69-94.1,19.44-62.24,3.75-121.03,1.12-131.3-5.87-10.27-6.99,31.85-15.69,94.1-19.44,62.24-3.75,121.03-1.12,131.3,5.87Z"/>
    <g>
      <rect class="cls-4" x="182.75" y="192.55" width="17" height="16.21"/>
      <path class="cls-3" d="M86.15,197.09c-.66,0-1.31.02-1.96.08-.65-.08-1.3-.13-1.96-.14-11.43-.16-20.84,10.68-21.03,24.21s8.92,24.63,20.34,24.79l3.92.06c11.42.16,20.84-10.68,21.03-24.21.19-13.53-8.92-24.63-20.34-24.79Z"/>
      <path class="cls-4" d="M256.17,194.77c-3.25-.05-6,7.91-6.14,17.78-.04,2.9.15,5.64.52,8.07l8.53.12,1.97.03c.44-2.42.71-5.15.75-8.05.14-9.87-2.38-17.9-5.63-17.95Z"/>
      <path class="cls-3" d="M183.67,198.47c-.66,0-1.31.02-1.96.08-.65-.08-1.3-.13-1.96-.14-11.43-.16-20.84,10.68-21.03,24.21-.19,13.53,8.92,24.63,20.34,24.79l3.92.06c11.42.16,20.84-10.68,21.03-24.21.19-13.53-8.92-24.63-20.34-24.79Z"/>
      <path class="cls-3" d="M259.98,178.83c.66-.64.84-1.63.45-2.46-1.01-2.09-2.52-3.9-4.41-5.24-4.02-2.91.6,9.02.6,9.02l3.36-1.32Z"/>
      <path class="cls-3" d="M254.34,198.01l-8.91-.13c-3.53-.05-6.52,8.36-6.67,18.78-.15,10.42,2.6,18.91,6.13,18.96l8.91.13c3.53.05,6.52-8.36,6.67-18.78.15-10.42-2.6-18.91-6.13-18.96Z"/>
      <ellipse class="cls-5" cx="185.51" cy="223.01" rx="17.06" ry="13.74" transform="translate(-40.11 405.35) rotate(-89.19)"/>
      <path class="cls-1" d="M264.64,201.98c-.23,16.26-2.38,17.93-2.38,17.93l-1.19.86h0c.47-2.66.72-5.36.75-8.06.14-9.86-2.38-17.9-5.63-17.95-1.9-.03-3.62,2.68-4.76,6.89h0c-.21.79-.41,1.63-.57,2.52l-3.97,17.44c-.47,2.05-2.14,3.6-4.22,3.92l-39.98,6.04h0c.85-2.68,1.3-5.48,1.33-8.29.09-6.51-1.96-12.46-5.4-16.9-.84-6.31-4.26-11.04-8.43-11.1-3.14-.04-5.53,2.59-7.56,6.56h0c-3.73,6.67-6.11,20.85-7.06,27.51-.29,2.05-2.07,3.57-4.15,3.53l-37.64-.74-11.13-4.16-50.79-.72-6.92,3.53-3.19-.06c-2.88-.06-5.27-2.24-5.59-5.1-1.06-9.68-1.46-25.96,1.32-31.98,0,0,4.45-6.94,6.02-9.32,4.9-7.45,24.97-9.82,31.5-13.5,9.66-5.45,25.03-19.91,37.59-23.57,12.55-3.65,34.22-4.12,47.81-3.93,13.59.19,31.74-.28,47.24,6.01,15.5,6.29,28.38,21.79,28.38,21.79l2.05,7.67,1.91.03-.03,2.46s4.92,4.45,4.69,20.7Z"/>
      <path class="cls-3" d="M203.41,223.5s35.61-7.37,40.84-8.47c-.61,1.85-1.51,4.23-3.44,4.54-3.96.64-34.51,6.09-37.58,6.66l.18-2.73Z"/>
      <path class="cls-3" d="M99.49,170.85c-.45,0-.66-.56-.31-.85,2.55-2.14,9.44-7.79,16.09-12.18,4.79-3.2,9.79-6.07,14.96-8.62,0,0,10.44-2.17,33.44-2.53,15.1-.24,37.74,2.08,37.74,2.08l-11.01,21.06c-.75,1.43-2.26,2.31-3.87,2.25-7.53-.28-29.58-1.08-45.94-1.31-17.12-.25-35.97.01-41.08.09Z"/>
      <path class="cls-3" d="M202.06,172.64l17.33-4.11,1.83,1.04s-.38,3.21-2.32,4.69l29.82-2.72s-2.79-7.33-7.46-12.12c-4.67-4.79-28.15-15.42-34.69-9.04-2.73,2.65-5.09,6.69-6.91,10.51,0,.02-.02.04-.02.05l2.43,11.7Z"/>
      <path class="cls-3" d="M168.36,196.68l-30.39,4.6c-2.66.4-5.11,1.66-6.99,3.59l-11.47,11.83c-1.13,1.17-2.7,1.82-4.33,1.8l-36.63-.52c-1.47-.02-2.81-.83-3.51-2.13l-7.02-13.01c-.95-1.76-2.29-3.28-3.92-4.45l-6.63-4.74,3.16-6.69c.6-1.2,1.61-2.14,2.86-2.63,0,0,8.21,6.25,12.26,6.3l47.79.68c2.16.03,4.32-.11,6.46-.43l44.85-6.71-6.5,12.52Z"/>
      <path class="cls-3" d="M168.24,202.35l1.23,22.59s-8.38.79-12.62-1.82c-4.81-2.95-6.08-8.45-8.41-12.89-.68-1.29-.18-2.88,1.11-3.55.2-.11.42-.19.64-.24l18.05-4.09Z"/>
      <path class="cls-3" d="M57.22,198.77l2.69,3.06c.76.87,1.12,2.02.98,3.17-.44,3.53-1.65,11.25-4.06,14.55-.22-7.8.39-20.78.39-20.78Z"/>
      <path class="cls-2" d="M175.16,191.63l-6.81,5.05-27.15,1.43c-1.14.06-2.25-.35-3.08-1.13l-2.88-2.72c-.71-.67-.35-1.86.61-2.02l30.05-5.22,8.96-2.88,1.25,4.95c.07.94-.28,1.87-.96,2.53Z"/>
      <ellipse class="cls-5" cx="254.89" cy="216.8" rx="13.62" ry="4.25" transform="translate(34.5 468.6) rotate(-89.19)"/>
      <path class="cls-2" d="M64.65,194.83l-7.17-1.19s-.34-.73.11-1.81c.71-1.72,2.12-4.42,3.01-5.51.64-.78,1.59-1.57,2.91-2.01h0c0,.24-.3.65,5.3,5.78.52.47.79,1.17.19,1.79-.85.88-1.73,1.74-2.36,2.33-.53.5-1.26.73-1.98.61Z"/>
      <path class="cls-2" d="M221.22,169.57c-2.67-.04-4.18-.36-5.57,1.5-2.34,3.13-13.58,1.57-13.58,1.57h0l.29-3.76c.17-2.15,1.98-3.79,4.13-3.76l5.69.08c9.63.14,9.04,4.37,9.04,4.37Z"/>
      <path class="cls-3" d="M133.77,232.15l-4.35-2.89c-3.29-2.19-7.14-3.4-11.09-3.48l-43.8-.94c-2.45-.05-4.82.93-6.51,2.71l-3.08,3.25,68.84,1.35Z"/>
    </g>
  </g>
</svg>